<?xml version="1.0" standalone="no"?>
<!DOCTYPE svg PUBLIC "-//W3C//DTD SVG 20010904//EN"
 "http://www.w3.org/TR/2001/REC-SVG-20010904/DTD/svg10.dtd">
<svg version="1.0" xmlns="http://www.w3.org/2000/svg"
 width="512.000000pt" height="512.000000pt" viewBox="0 0 512.000000 512.000000"
 preserveAspectRatio="xMidYMid meet">

<g transform="translate(0.000000,512.000000) scale(0.100000,-0.100000)"
fill="#08184f" stroke="none">
<path d="M2270 5089 c-839 -96 -1586 -611 -1975 -1362 -138 -266 -221 -532
-267 -852 -17 -118 -17 -522 0 -640 42 -297 119 -550 241 -800 330 -672 929
-1163 1651 -1351 205 -53 310 -64 640 -64 255 0 324 3 425 20 583 95 1140 411
1521 864 315 374 514 826 586 1331 17 118 17 522 0 640 -46 320 -129 586 -267
852 -393 757 -1139 1268 -1990 1363 -106 12 -458 11 -565 -1z m268 -1329 c607
-43 1160 -180 1587 -392 196 -98 238 -129 278 -203 30 -56 30 -164 0 -220 -45
-86 -117 -129 -213 -129 -61 0 -73 4 -190 67 -432 230 -940 355 -1587 389
-425 23 -851 -16 -1217 -109 -100 -25 -153 -34 -188 -31 -66 7 -135 51 -173
112 -27 44 -30 58 -30 130 0 71 4 87 28 129 17 29 47 60 73 76 101 65 546 153
909 180 162 12 555 13 723 1z m99 -899 c467 -64 905 -204 1254 -403 62 -35
122 -76 134 -93 71 -96 55 -225 -38 -299 -53 -42 -142 -48 -207 -14 -25 14
-92 50 -150 81 -455 244 -1108 375 -1692 339 -238 -15 -405 -40 -612 -92 -157
-40 -160 -40 -211 -25 -116 33 -177 169 -126 280 25 56 79 100 148 120 184 54
395 96 608 119 194 22 689 15 892 -13z m-12 -831 c366 -55 735 -180 994 -338
108 -65 131 -96 131 -178 0 -84 -59 -152 -141 -161 -38 -4 -55 1 -119 36 -229
127 -413 201 -630 255 -184 45 -301 63 -518 77 -282 18 -645 -12 -992 -83
-156 -32 -208 -19 -251 62 -40 74 -18 171 51 222 43 32 434 103 705 127 174
16 609 6 770 -19z"/>
</g>
</svg>
